<?xml version="1.0" encoding="UTF-8"?>
<svg width="390px" height="73px" viewBox="0 0 390 73" version="1.1" xmlns="http://www.w3.org/2000/svg" xmlns:xlink="http://www.w3.org/1999/xlink">
    <!-- Generator: Sketch 48 (47235) - http://www.bohemiancoding.com/sketch -->
    <title>logo-white-cn</title>
    <desc>Created with Sketch.</desc>
    <defs></defs>
    <g id="Page-1" stroke="none" stroke-width="1" fill="none" fill-rule="evenodd">
        <g id="logo-white-cn" fill="#FFFFFF">
            <g id="logo-cn" transform="translate(1.000000, 0.000000)">
                <path d="M79.12,66.71 C61.92,62.98 50.7,53.58 44.84,38 L75.33,38 L75.33,31.63 L42.71,31.63 C42.82,30.27 42.82,28.94 42.82,27.63 L42.82,14.52 L77.6,14.52 L77.6,8.15 L1.94,8.15 L1.94,14.52 L35.64,14.52 L35.64,27.64 C35.64,28.94 35.64,30.28 35.53,31.64 L4.53,31.64 L4.53,38.01 L34.75,38.01 C32.88,46.75 27.07,58.93 0.87,67.11 L0,67.39 L0.58,68.1 L2.27,70.19 C2.92,71 3.99,72.39 3.99,72.39 L4.25,72.73 L4.66,72.6 C24.17,66.51 35.86,57.32 40.33,44.53 C47.11,59.23 58.46,68.39 74.99,72.6 L75.37,72.7 L80.11,66.93 L79.12,66.71 Z" id="Shape" fill-rule="nonzero"></path>
                <path d="M97.87,17.05 L155.87,17.05 L155.87,27.22 L162.87,27.22 L162.87,11.22 L130.33,11.22 L130.33,4.56 C130.401581,4.45666746 130.443119,4.33551561 130.45,4.21 C130.45,3.62 130.45,3.4 124.06,2.15 L123.33,2 L123.33,11.2 L91.02,11.2 L91.02,27.2 L97.86,27.2 L97.87,17.05 Z" id="Shape" fill-rule="nonzero"></path>
                <path d="M92.05,43.27 L92.44,43.19 C111.02,39.19 115.94,32.31 118.35,21.07 C118.446922,20.9615293 118.506506,20.8248367 118.52,20.68 C118.52,20.07 118.58,19.9 112.34,18.43 L111.69,18.28 L111.59,18.94 C110.05,28.86 106.15,34.5 89.1,37.81 L88.1,38 L88.68,38.79 L90.14,40.79 L92.05,43.27 Z" id="Shape" fill-rule="nonzero"></path>
                <path d="M158.89,28.8 L158.89,29.61 C158.63,34.08 158.14,34.08 156.08,34.08 L143.41,34.08 C139.77,34.08 139.77,33.72 139.77,32.55 L139.77,20.67 C139.854747,20.5608068 139.903648,20.4280753 139.91,20.29 C139.91,19.7 139.91,19.47 133.75,18.29 L133.01,18.15 L133.01,32.62 C133.01,38.18 135.14,39.7 142.91,39.7 L156.71,39.7 C162.52,39.7 164.41,37.84 165.1,31.42 L165.15,30.93 L158.89,28.8 Z" id="Shape" fill-rule="nonzero"></path>
                <polygon id="Shape" fill-rule="nonzero" points="130.32 49.96 156.49 49.96 156.49 44.11 98.14 44.11 98.14 49.96 123.31 49.96 123.31 64.24 89.1 64.24 89.1 70.17 165.02 70.17 165.02 64.24 130.32 64.24"></polygon>
                <path d="M252.39,64.92 C249.07,64.99 236.21,64.99 230.83,64.99 C221.7,64.99 211.42,64.48 203.83,60.8 C214.04,54.28 231.12,38.8 247.18,15.62 C247.30448,15.4916122 247.405958,15.3427774 247.48,15.18 L247.66,14.82 L247.4,14.51 C246.226735,13.4176829 244.973221,12.414872 243.65,11.51 L243.42,11.34 L242.05,11.69 L216.65,11.69 L216.65,5.21 C216.724674,5.10749695 216.769654,4.98639653 216.78,4.86 C216.78,4.3 216.84,3.99 210.5,2.31 L209.72,2.1 L209.72,11.67 L178.11,11.67 L178.11,17.81 L236.78,17.81 C228.26,29.14 212.62,48.22 198.13,56.89 C196.462787,55.3639505 195.06337,53.5690459 193.99,51.58 C194.84,50.06 195.71,48.51 196.42,47.18 L196.75,46.56 L190.38,44.1 L190.13,44.61 C186.79,51.51 180.99,61.14 174.72,67.48 L173.86,68.35 L175.07,68.53 C175.29,68.53 180.55,69.33 181.83,69.33 C182.136096,69.3725794 182.4405,69.2415698 182.62,68.99 C184.878498,66.2663822 186.886639,63.3445365 188.62,60.26 C189.19,59.32 189.77,58.36 190.39,57.36 C194.384026,62.6265215 199.976438,66.4577101 206.33,68.28 C212.44,70.2 219.93,71.06 230.61,71.06 L250.86,71.06 L250.95,70.55 C251.340518,68.8921527 252.017336,67.3151668 252.95,65.89 L253.65,64.89 L252.39,64.92 Z" id="Shape" fill-rule="nonzero"></path>
                <path d="M327.62,9.66 C329.26,10.94 332.03,13.34 332.06,13.36 L332.37,13.62 L337.68,11.11 L326.77,2.11 L321.77,5.11 L322.48,5.67 L327.62,9.66 Z" id="Shape" fill-rule="nonzero"></path>
                <path d="M334.65,53.39 L334.65,54.47 C334.27,64.6 333.09,66.73 332.18,66.73 C329.6,66.73 327.02,62.43 324.91,54.62 C329.787366,47.9457269 333.419006,40.4453078 335.63,32.48 C335.726477,32.3973186 335.798999,32.2902623 335.84,32.17 C335.98,31.77 336.17,31.17 331.39,27.41 L330.65,26.82 L330.4,27.73 C328.695301,34.1288595 326.220553,40.2972615 323.03,46.1 C321.62453,37.5906421 320.72296,29.0056891 320.33,20.39 L338.7,20.39 L338.7,14.47 L320.1,14.47 C319.96,11.32 319.96,8.9 319.96,5.71 C320.037461,5.61194022 320.085954,5.49417155 320.1,5.37 C320.16,4.86 320.2,4.46 314.2,2.37 L313.33,2.03 L313.33,2.91 C313.33,5.67 313.41,8.45 313.48,11.14 C313.48,12.25 313.54,13.36 313.57,14.47 L286.45,14.47 L286.45,37.23 C286.476574,40.5699312 286.312976,43.9086667 285.96,47.23 L285.17,44.02 L284.52,44.26 C282.71,44.92 280.88,45.62 279.11,46.26 L276.9,47.1 L276.9,25.81 L285.43,25.81 L285.43,19.81 L276.9,19.81 L276.9,6.09 C276.969065,5.99285393 277.010532,5.87881777 277.02,5.76 C277.02,5.25 277.1,4.88 271.28,2.99 L270.47,2.73 L270.47,19.83 L261.19,19.83 L261.19,25.83 L270.47,25.83 L270.47,49.39 C266.47,50.84 263.01,52.09 260.11,53.02 L259.22,53.31 L259.84,54.02 C263.84,58.62 263.84,58.62 264.24,58.62 L264.33,58.62 L264.43,58.62 C268.82,57.04 275.1,54.39 281.74,51.62 L285.56,50.01 C284.46,56.72 282.04,63.27 276.91,68.57 L276.41,69.08 L281.69,72.94 L282.07,72.55 C289.39,64.87 292.95,53.33 292.95,37.28 L292.95,35.1 L304.58,35.1 C304.33,46.05 304.09,52.59 303.33,53.65 C303.02,54.06 302.73,54.14 301.65,54.14 C300.57,54.14 297.74,54.14 294.76,53.92 L293.85,53.85 L295.55,59.39 L295.98,59.39 C297.47,59.46 298.98,59.54 300.44,59.54 C304.27,59.54 306.58,59.54 308.53,57.3 C310.15,55.3 310.53,49.81 310.84,31.95 L310.84,29.73 L307.63,29.55 L306.46,29.63 L292.95,29.63 L292.95,20.39 L313.9,20.39 C314.54,33.61 315.95,45.09 318,53.65 C313.573806,59.3440015 308.043251,64.0854497 301.74,67.59 L300.97,68.01 L301.62,68.6 C301.62,68.6 302.73,69.6 303.4,70.18 C304.07,70.76 305.33,71.81 305.33,71.81 L305.66,72.09 L306.04,71.87 C311.259788,68.8453848 315.981945,65.0339298 320.04,60.57 C322.88,68.57 326.73,72.69 331.49,72.69 C337.65,72.6 339.11,67.84 340.04,57.19 L340.04,56.82 L334.65,53.39 Z" id="Shape" fill-rule="nonzero"></path>
                <text id="TM" font-family="Dji-Demi" font-size="26.42" font-weight="500">
                    <tspan x="349.82" y="24.21">TM</tspan>
                </text>
            </g>
        </g>
    </g>
</svg>
